<svg width="52" height="16" viewBox="0 0 52 16" fill="none" xmlns="http://www.w3.org/2000/svg">
  <g clip-path="url(#clip0_1_2)" transform="translate(-17, 0)">
    <path
      d="M28.7752 15.1757L27.6281 11.9806H22.3221L21.175 15.1757H18.3601L23.7366 0.827829H26.2805L31.657 15.1757H28.7717H28.7752ZM24.9751 4.59005L23.3073 9.2118H26.6394L24.9716 4.59005H24.9751Z"
      fill="white" />
    <path
      d="M37.8849 15.1229H32.994V0.877146H37.8849C41.8293 0.877146 44.5527 3.94892 44.5527 7.96125V8.00352C44.5527 12.0123 41.8293 15.1264 37.8849 15.1264V15.1229ZM41.6639 8C41.6639 5.47776 40.1403 3.70586 37.8814 3.70586H35.7491V12.2941H37.8814C40.1403 12.2941 41.6639 10.5645 41.6639 8.03875V7.99648V8Z"
      fill="white" />
    <path
      d="M45.8827 15.1229V0.877146H55.3443V3.66711H48.6237V6.5557H54.5385V9.34566H48.6237V12.3364H55.4322V15.1264H45.8792L45.8827 15.1229Z"
      fill="white" />
    <path d="M69 13.1466L66.2766 9.08146V0.877146H69V13.1466Z" fill="#EDA320" />
    <path d="M68.9015 15.1229H65.5658L59.4927 6.06605V15.1229H56.7693V0.877146H59.3133L68.9015 15.1229Z" fill="white" />
  </g>
  <defs>
    <clipPath id="clip0_1_2">
      <rect width="69" height="16" fill="white" />
    </clipPath>
  </defs>
</svg>